<svg width="365" height="115" viewBox="0 0 365 115" fill="none" xmlns="http://www.w3.org/2000/svg">
<g clip-path="url(#clip0_10899_11128)">
<path d="M6.92813 62.2948L12.0459 59.4233L12.1319 59.1739L12.0459 59.0352H11.7965L10.9412 58.9825L8.01701 58.9034L5.48097 58.7981L3.02395 58.6663L2.40575 58.5346L1.82617 57.7706L1.88589 57.3895L2.40575 57.0401L3.1504 57.105L4.79603 57.2174L7.26533 57.3877L9.05671 57.4932L11.7105 57.7688H12.1319L12.1917 57.5985L12.0476 57.4932L11.9353 57.3877L9.37985 55.6561L6.61376 53.8261L5.16484 52.7723L4.38154 52.2384L3.98639 51.7379L3.81603 50.6455L4.52732 49.8622L5.48272 49.9271L5.72684 49.9921L6.69455 50.7368L8.76167 52.3367L11.461 54.3249L11.8563 54.6533L12.0143 54.5409L12.0336 54.4618L11.8563 54.165L10.3879 51.5113L8.82138 48.8119L8.12414 47.6932L7.93974 47.0223C7.87475 46.7466 7.82733 46.5147 7.82733 46.232L8.63697 45.1325L9.0848 44.9885L10.1649 45.1325L10.6198 45.5277L11.2907 47.0627L12.3778 49.4793L14.0638 52.7653L14.5574 53.74L14.8208 54.6427L14.9191 54.9184H15.0895V54.7604L15.2282 52.9093L15.4847 50.6367L15.734 47.7125L15.8201 46.8888L16.2276 45.9018L17.0372 45.3679L17.6694 45.67L18.1893 46.4146L18.1173 46.8958L17.8082 48.905L17.2022 52.0522L16.8071 54.1597H17.0372L17.3007 53.8963L18.3667 52.4808L20.1581 50.2415L20.9484 49.3528L21.8704 48.3711L22.4623 47.9039H23.5811L24.4047 49.1281L24.0359 50.3926L22.8838 51.8538L21.9284 53.092L20.5585 54.9361L19.7032 56.4113L19.7822 56.5289L19.986 56.5096L23.0805 55.8511L24.7525 55.549L26.7476 55.2065L27.6503 55.628L27.7486 56.0565L27.3938 56.9328L25.2601 57.4597L22.7573 57.9603L19.0306 58.8419L18.9849 58.8753L19.0376 58.9403L20.7165 59.0984L21.4349 59.137H23.1929L26.4666 59.3812L27.3218 59.9466L27.8347 60.6386L27.7486 61.1655L26.4315 61.8364L24.6541 61.4149L20.5058 60.4278L19.0832 60.0731H18.8866V60.1907L20.072 61.3499L22.2445 63.3117L24.965 65.8407L25.1037 66.4659L24.7542 66.9594L24.3854 66.9067L21.9951 65.1083L21.0731 64.2987L18.9849 62.5407H18.8461V62.725L19.3273 63.4294L21.8687 67.2492L22.0004 68.4207L21.816 68.8018L21.1574 69.0318L20.4338 68.9001L18.9462 66.8119L17.4112 64.4602L16.1731 62.3527L16.0221 62.4388L15.2915 70.3087L14.949 70.7108L14.1587 71.0129L13.5 70.5123L13.1506 69.7027L13.5 68.1028L13.9216 66.0146L14.264 64.3549L14.5731 62.293L14.7576 61.608L14.7452 61.5624L14.5942 61.5817L13.0399 63.7156L10.676 66.9102L8.80557 68.9123L8.35773 69.0898L7.58146 68.6876L7.65347 67.9692L8.08726 67.33L10.676 64.037L12.2374 61.9962L13.2455 60.8177L13.2384 60.6474H13.1787L6.3029 65.1118L5.07878 65.2699L4.5519 64.7764L4.61688 63.9667L4.86627 63.7033L6.93339 62.2807L6.92637 62.2877L6.92813 62.2948Z" fill="#D97757"/>
<path d="M363.257 68.0869H358.477C357.643 67.0184 356.75 65.8743 355.798 64.6545C354.846 63.4347 353.857 62.248 352.83 61.0944L351.515 62.1866V65.5055C351.515 65.8459 351.584 66.1296 351.723 66.3565C351.862 66.574 352.087 66.7348 352.397 66.8388C352.653 66.9333 352.899 67.0043 353.135 67.0515C353.37 67.0988 353.643 67.1319 353.953 67.1508V68.0869H346.189V67.1508C346.435 67.1319 346.691 67.113 346.959 67.0941C347.226 67.0657 347.451 67.0279 347.632 66.9806C347.932 66.8955 348.156 66.749 348.306 66.5409C348.456 66.3234 348.531 66.0445 348.531 65.7041V49.4497C348.531 49.0998 348.445 48.7736 348.274 48.471C348.114 48.159 347.9 47.9226 347.632 47.7619C347.408 47.6106 347.055 47.5113 346.574 47.464C346.103 47.4167 345.723 47.3836 345.435 47.3647V46.457L351.29 46.1307L351.515 46.3435V61.137C352.349 60.3994 353.247 59.6099 354.21 58.7683C355.183 57.9173 356.001 57.1608 356.664 56.4989C356.75 56.4138 356.84 56.3051 356.937 56.1727C357.044 56.0309 357.097 55.9174 357.097 55.8323C357.097 55.577 356.862 55.3879 356.391 55.265C355.931 55.142 355.488 55.0569 355.06 55.0097V54.1019H362.022V54.9813C361.124 55.2177 360.327 55.5155 359.632 55.8749C358.947 56.2247 358.423 56.5415 358.06 56.8252C357.803 57.0143 357.439 57.3216 356.969 57.7471C356.498 58.1726 355.841 58.7305 354.996 59.4208C355.873 60.3758 356.857 61.5199 357.947 62.8532C359.049 64.1865 359.851 65.1509 360.354 65.7466C360.824 66.3045 361.247 66.6686 361.621 66.8388C361.995 67.009 362.541 67.113 363.257 67.1508V68.0869Z" fill="#1A1108" stroke="#1A1108" stroke-width="0.19782"/>
<path d="M346.115 55.9033C346.115 56.3856 345.982 56.8158 345.714 57.194C345.447 57.5628 345.035 57.7472 344.479 57.7472C343.88 57.7472 343.42 57.6101 343.099 57.3359C342.789 57.0616 342.634 56.7591 342.634 56.4281C342.634 56.2201 342.65 56.031 342.682 55.8608C342.725 55.6906 342.763 55.5204 342.795 55.3502C342.292 55.3502 341.704 55.5298 341.03 55.8891C340.356 56.2485 339.784 56.7591 339.314 57.421V65.5623C339.314 65.8933 339.383 66.1628 339.522 66.3708C339.672 66.5788 339.902 66.7349 340.212 66.8389C340.479 66.9334 340.821 67.0043 341.239 67.0516C341.666 67.0989 342.035 67.132 342.345 67.1509V68.087H334.004V67.1509C334.25 67.132 334.501 67.1131 334.758 67.0942C335.025 67.0753 335.255 67.0374 335.447 66.9807C335.747 66.8956 335.966 66.749 336.105 66.541C336.255 66.3235 336.33 66.0446 336.33 65.7042V57.0664C336.33 56.7732 336.249 56.4848 336.089 56.2012C335.939 55.9175 335.725 55.6906 335.447 55.5204C335.244 55.4069 335.004 55.3265 334.726 55.2792C334.447 55.2225 334.148 55.1847 333.827 55.1658V54.2438L339.089 53.9318L339.314 54.1304V56.1019H339.394C340.057 55.336 340.795 54.7544 341.608 54.3573C342.42 53.9602 343.164 53.7616 343.837 53.7616C344.511 53.7616 345.057 53.9554 345.474 54.3431C345.901 54.7308 346.115 55.2509 346.115 55.9033Z" fill="#1A1108" stroke="#1A1108" stroke-width="0.19782"/>
<path d="M332.697 60.9526C332.697 61.936 332.52 62.9053 332.167 63.8603C331.814 64.8059 331.312 65.6096 330.659 66.2715C329.921 67.028 329.066 67.5906 328.092 67.9593C327.119 68.3281 326.028 68.5125 324.82 68.5125C323.815 68.5125 322.857 68.347 321.948 68.0161C321.039 67.6757 320.232 67.184 319.526 66.541C318.831 65.9075 318.275 65.1368 317.858 64.2291C317.451 63.3119 317.248 62.2859 317.248 61.1512C317.248 58.9669 317.965 57.1798 319.398 55.7898C320.841 54.3998 322.729 53.7048 325.061 53.7048C327.274 53.7048 329.098 54.3667 330.531 55.6905C331.975 57.0049 332.697 58.7589 332.697 60.9526ZM329.376 60.981C329.376 60.2718 329.296 59.5248 329.135 58.74C328.975 57.9457 328.734 57.2744 328.413 56.7259C328.071 56.1397 327.622 55.6716 327.066 55.3218C326.51 54.9624 325.831 54.7828 325.028 54.7828C324.205 54.7828 323.499 54.9624 322.911 55.3218C322.333 55.6811 321.863 56.1728 321.499 56.7969C321.157 57.3737 320.916 58.0308 320.777 58.7684C320.638 59.5059 320.569 60.2198 320.569 60.9101C320.569 61.8178 320.649 62.6594 320.809 63.4348C320.98 64.2007 321.248 64.8862 321.611 65.4914C321.975 66.0966 322.43 66.5741 322.975 66.9239C323.531 67.2643 324.216 67.4346 325.028 67.4346C326.365 67.4346 327.424 66.8625 328.205 65.7183C328.985 64.5742 329.376 62.9951 329.376 60.981Z" fill="#1A1108" stroke="#1A1108" stroke-width="0.19782"/>
<path d="M317.608 55.0098C317.158 55.0476 316.672 55.2131 316.148 55.5062C315.634 55.7994 315.26 56.239 315.025 56.8253C314.49 58.2153 313.982 59.5344 313.501 60.7825C313.03 62.0212 312.501 63.4159 311.913 64.9667C311.72 65.4584 311.522 65.9879 311.319 66.5552C311.127 67.1226 310.95 67.6663 310.79 68.1864H309.41L305.159 57.8891L300.876 68.1864H299.56C298.758 66.0872 297.972 64.0069 297.202 61.9456C296.443 59.8748 295.769 58.0735 295.181 56.5416C295.01 56.0972 294.684 55.7473 294.202 55.492C293.721 55.2367 293.256 55.0854 292.807 55.0382V54.1021H299.865V55.0949C299.512 55.1044 299.127 55.1564 298.71 55.2509C298.304 55.3455 298.101 55.5015 298.101 55.719C298.101 55.7568 298.117 55.8372 298.149 55.9601C298.191 56.083 298.24 56.2154 298.293 56.3572C298.635 57.3501 299.02 58.4611 299.448 59.6904C299.887 60.9102 300.448 62.4987 301.132 64.4561L305.175 54.3857H306.715L310.838 64.3142C311.298 63.0472 311.752 61.8227 312.201 60.6407C312.661 59.4493 313.062 58.3335 313.405 57.2934C313.48 57.0475 313.549 56.8253 313.613 56.6267C313.688 56.4187 313.725 56.2154 313.725 56.0168C313.725 55.8466 313.64 55.6953 313.469 55.563C313.298 55.4306 313.089 55.3218 312.843 55.2367C312.629 55.1611 312.394 55.1044 312.137 55.0665C311.891 55.0287 311.71 55.0098 311.592 55.0098V54.1021H317.608V55.0098Z" fill="#1A1108" stroke="#1A1108" stroke-width="0.19782"/>
<path d="M293.44 67.4772C292.745 67.7325 292.087 67.9453 291.467 68.1155C290.846 68.2951 290.087 68.3849 289.189 68.3849C287.862 68.3849 286.927 68.0918 286.381 67.5056C285.846 66.9099 285.579 66.073 285.579 64.9951V55.5204H282.724V54.1588H285.643V49.8044H288.563V54.1588H293.103V55.5204H288.595V63.3356C288.595 63.9218 288.616 64.4135 288.659 64.8107C288.713 65.1984 288.83 65.5388 289.012 65.8319C289.183 66.1061 289.44 66.3141 289.782 66.456C290.124 66.5978 290.584 66.6687 291.162 66.6687C291.429 66.6687 291.819 66.6498 292.333 66.612C292.857 66.5647 293.226 66.508 293.44 66.4418V67.4772Z" fill="#1A1108" stroke="#1A1108" stroke-width="0.19782"/>
<path d="M283.446 63.2542C283.03 64.4835 282.346 65.5374 281.396 66.4161C280.446 67.2948 279.264 67.8843 277.852 68.1844C276.607 68.449 275.473 68.4872 274.449 68.2988C273.435 68.1083 272.554 67.7445 271.806 67.2075C271.058 66.6706 270.437 65.9904 269.945 65.1669C269.464 64.3413 269.118 63.4336 268.907 62.444C268.719 61.556 268.691 60.6533 268.824 59.7357C268.965 58.8066 269.272 57.9342 269.743 57.1186C270.2 56.3352 270.826 55.6512 271.62 55.0667C272.422 54.4707 273.373 54.056 274.471 53.8225C275.601 53.5824 276.602 53.534 277.475 53.6772C278.347 53.8205 279.092 54.1116 279.71 54.5505C280.302 54.9662 280.787 55.5011 281.167 56.1551C281.557 56.8069 281.839 57.5443 282.014 58.3675L282.209 59.2832L271.962 61.4611C272.153 62.3583 272.42 63.1522 272.764 63.8429C273.118 64.5313 273.563 65.1085 274.099 65.5745C274.621 66.0242 275.245 66.3363 275.971 66.5107C276.695 66.6758 277.512 66.6617 278.422 66.4682C279.353 66.2703 280.113 65.9106 280.702 65.3891C281.299 64.8561 281.806 64.0234 282.221 62.8911L283.446 63.2542ZM278.87 58.7748C278.76 58.2569 278.589 57.7131 278.359 57.1434C278.139 56.5714 277.877 56.11 277.573 55.7589C277.242 55.3846 276.838 55.1078 276.363 54.9285C275.887 54.7493 275.32 54.7297 274.661 54.8697C273.563 55.1032 272.734 55.7047 272.175 56.6743C271.624 57.6324 271.47 58.8396 271.714 60.2958L278.87 58.7748Z" fill="#1A1108" stroke="#1A1108" stroke-width="0.19782"/>
<path d="M268.316 48.9675C268.016 48.9769 267.557 49.0526 266.936 49.1944C266.316 49.3363 265.872 49.4828 265.605 49.6341C265.22 49.8705 264.958 50.3244 264.819 50.9957C264.69 51.6671 264.626 52.5181 264.626 53.5488V68.2855H263.23L249.434 51.8184V62.2008C249.434 63.3638 249.515 64.2574 249.675 64.8815C249.846 65.5056 250.103 65.95 250.445 66.2147C250.691 66.4228 251.199 66.6166 251.969 66.7963C252.739 66.9759 253.247 67.0705 253.493 67.0799V68.087H244.156V67.0799C244.445 67.061 244.932 66.9712 245.616 66.8104C246.301 66.6402 246.729 66.4889 246.9 66.3566C247.274 66.0918 247.531 65.6899 247.67 65.151C247.809 64.6025 247.878 63.6711 247.878 62.3568V52.4425C247.878 52.0075 247.793 51.5725 247.622 51.1376C247.45 50.7026 247.221 50.3669 246.932 50.1305C246.547 49.8185 246.023 49.5537 245.36 49.3363C244.707 49.1093 244.178 48.9864 243.771 48.9675V47.9604H250.269L263.07 63.3071V53.7332C263.07 52.5607 262.985 51.6624 262.813 51.0383C262.642 50.4048 262.396 49.984 262.075 49.7759C261.776 49.5963 261.284 49.4214 260.6 49.2512C259.926 49.081 259.412 48.9864 259.06 48.9675V47.9604H268.316V48.9675Z" fill="#1A1108" stroke="#1A1108" stroke-width="0.19782"/>
<path d="M237.224 55.9033C237.224 56.3856 237.09 56.8158 236.823 57.194C236.555 57.5628 236.144 57.7472 235.587 57.7472C234.989 57.7472 234.529 57.6101 234.208 57.3359C233.898 57.0616 233.743 56.7591 233.743 56.4281C233.743 56.2201 233.759 56.031 233.791 55.8608C233.834 55.6906 233.871 55.5204 233.903 55.3502C233.4 55.3502 232.812 55.5298 232.138 55.8891C231.465 56.2485 230.892 56.7591 230.422 57.421V65.5623C230.422 65.8933 230.491 66.1628 230.63 66.3708C230.78 66.5788 231.01 66.7349 231.32 66.8389C231.588 66.9334 231.93 67.0043 232.347 67.0516C232.775 67.0989 233.144 67.132 233.454 67.1509V68.087H225.112V67.1509C225.358 67.132 225.609 67.1131 225.866 67.0942C226.133 67.0753 226.363 67.0374 226.556 66.9807C226.855 66.8956 227.074 66.749 227.214 66.541C227.363 66.3235 227.438 66.0446 227.438 65.7042V57.0664C227.438 56.7732 227.358 56.4848 227.197 56.2012C227.048 55.9175 226.834 55.6906 226.556 55.5204C226.353 55.4069 226.112 55.3265 225.834 55.2792C225.556 55.2225 225.256 55.1847 224.936 55.1658V54.2438L230.197 53.9318L230.422 54.1304V56.1019H230.502C231.165 55.336 231.903 54.7544 232.716 54.3573C233.529 53.9602 234.272 53.7616 234.946 53.7616C235.62 53.7616 236.165 53.9554 236.582 54.3431C237.01 54.7308 237.224 55.2509 237.224 55.9033Z" fill="#1A1108" stroke="#1A1108" stroke-width="0.19782"/>
<path d="M224.889 63.2542C224.472 64.4835 223.789 65.5374 222.838 66.4161C221.888 67.2948 220.707 67.8843 219.295 68.1844C218.05 68.449 216.915 68.4872 215.891 68.2988C214.878 68.1083 213.997 67.7445 213.248 67.2075C212.5 66.6706 211.88 65.9904 211.388 65.1669C210.906 64.3413 210.56 63.4336 210.35 62.444C210.161 61.556 210.133 60.6533 210.266 59.7357C210.408 58.8066 210.714 57.9342 211.186 57.1186C211.643 56.3352 212.268 55.6512 213.062 55.0667C213.865 54.4707 214.815 54.056 215.914 53.8225C217.044 53.5824 218.045 53.534 218.917 53.6772C219.789 53.8205 220.535 54.1116 221.153 54.5505C221.744 54.9662 222.229 55.5011 222.609 56.1551C222.999 56.8069 223.281 57.5443 223.456 58.3675L223.651 59.2832L213.405 61.4611C213.595 62.3583 213.862 63.1522 214.206 63.8429C214.56 64.5313 215.005 65.1085 215.542 65.5745C216.064 66.0242 216.688 66.3363 217.413 66.5107C218.137 66.6758 218.954 66.6617 219.865 66.4682C220.796 66.2703 221.556 65.9106 222.144 65.3891C222.742 64.8561 223.248 64.0234 223.664 62.8911L224.889 63.2542ZM220.312 58.7748C220.202 58.2569 220.032 57.7131 219.801 57.1434C219.581 56.5714 219.319 56.11 219.015 55.7589C218.684 55.3846 218.281 55.1078 217.805 54.9285C217.33 54.7493 216.763 54.7297 216.104 54.8697C215.005 55.1032 214.176 55.7047 213.617 56.6743C213.066 57.6324 212.913 58.8396 213.157 60.2958L220.312 58.7748Z" fill="#1A1108" stroke="#1A1108" stroke-width="0.19782"/>
<path d="M209.261 68.087H201.512V67.1509C201.758 67.1319 202.026 67.113 202.314 67.0941C202.614 67.0752 202.86 67.0374 203.052 66.9807C203.352 66.8955 203.571 66.749 203.71 66.541C203.86 66.3235 203.935 66.0445 203.935 65.7041V58.513C203.935 57.5202 203.667 56.7543 203.132 56.2153C202.608 55.6763 201.967 55.4068 201.207 55.4068C200.641 55.4068 200.122 55.4872 199.651 55.648C199.181 55.7993 198.764 55.9884 198.4 56.2153C198.047 56.4328 197.764 56.6692 197.55 56.9245C197.347 57.1703 197.197 57.3689 197.101 57.5202V65.5623C197.101 65.8838 197.176 66.1485 197.325 66.3566C197.475 66.5646 197.7 66.7253 197.999 66.8388C198.224 66.9334 198.464 67.0043 198.721 67.0516C198.988 67.0988 199.261 67.1319 199.539 67.1509V68.087H191.791V67.1509C192.037 67.1319 192.288 67.113 192.545 67.0941C192.812 67.0752 193.042 67.0374 193.235 66.9807C193.534 66.8955 193.753 66.749 193.892 66.541C194.042 66.3235 194.117 66.0445 194.117 65.7041V57.0663C194.117 56.7448 194.037 56.4517 193.876 56.1869C193.726 55.9127 193.513 55.6905 193.235 55.5203C193.031 55.4068 192.791 55.3265 192.513 55.2792C192.235 55.2225 191.935 55.1846 191.614 55.1657V54.2438L196.876 53.9317L197.101 54.1303V56.1018H197.181C197.438 55.8749 197.758 55.6054 198.143 55.2934C198.528 54.9719 198.892 54.7118 199.234 54.5133C199.63 54.2863 200.101 54.0972 200.646 53.9459C201.191 53.7946 201.806 53.719 202.491 53.719C204.009 53.719 205.132 54.1398 205.86 54.9813C206.598 55.8134 206.967 56.9245 206.967 58.3145V65.5907C206.967 65.9216 207.031 66.1911 207.159 66.3991C207.287 66.5977 207.507 66.7537 207.817 66.8672C208.073 66.9617 208.293 67.0279 208.474 67.0658C208.667 67.1036 208.929 67.1319 209.261 67.1509V68.087Z" fill="#1A1108" stroke="#1A1108" stroke-width="0.19782"/>
<path d="M191.189 67.4772C190.494 67.7325 189.836 67.9453 189.216 68.1155C188.595 68.2951 187.836 68.3849 186.938 68.3849C185.611 68.3849 184.676 68.0918 184.13 67.5056C183.596 66.9099 183.328 66.073 183.328 64.9951V55.5204H180.473V54.1588H183.392V49.8044H186.312V54.1588H190.852V55.5204H186.344V63.3356C186.344 63.9218 186.365 64.4135 186.408 64.8107C186.462 65.1984 186.579 65.5388 186.761 65.8319C186.932 66.1061 187.189 66.3141 187.531 66.456C187.873 66.5978 188.333 66.6687 188.911 66.6687C189.178 66.6687 189.569 66.6498 190.082 66.612C190.606 66.5647 190.975 66.508 191.189 66.4418V67.4772Z" fill="#1A1108" stroke="#1A1108" stroke-width="0.19782"/>
<path d="M181.04 55.9033C181.04 56.3856 180.906 56.8158 180.639 57.194C180.372 57.5628 179.96 57.7472 179.404 57.7472C178.805 57.7472 178.345 57.6101 178.024 57.3359C177.714 57.0616 177.559 56.7591 177.559 56.4281C177.559 56.2201 177.575 56.031 177.607 55.8608C177.65 55.6906 177.687 55.5204 177.719 55.3502C177.217 55.3502 176.629 55.5298 175.955 55.8891C175.281 56.2485 174.709 56.7591 174.238 57.421V65.5623C174.238 65.8933 174.308 66.1628 174.447 66.3708C174.597 66.5788 174.827 66.7349 175.137 66.8389C175.404 66.9334 175.746 67.0043 176.163 67.0516C176.591 67.0989 176.96 67.132 177.27 67.1509V68.087H168.928V67.1509C169.174 67.132 169.426 67.1131 169.682 67.0942C169.95 67.0753 170.18 67.0374 170.372 66.9807C170.672 66.8956 170.891 66.749 171.03 66.541C171.18 66.3235 171.255 66.0446 171.255 65.7042V57.0664C171.255 56.7732 171.174 56.4848 171.014 56.2012C170.864 55.9175 170.65 55.6906 170.372 55.5204C170.169 55.4069 169.928 55.3265 169.65 55.2792C169.372 55.2225 169.073 55.1847 168.752 55.1658V54.2438L174.014 53.9318L174.238 54.1304V56.1019H174.319C174.982 55.336 175.72 54.7544 176.532 54.3573C177.345 53.9602 178.088 53.7616 178.762 53.7616C179.436 53.7616 179.981 53.9554 180.398 54.3431C180.826 54.7308 181.04 55.2509 181.04 55.9033Z" fill="#1A1108" stroke="#1A1108" stroke-width="0.19782"/>
<path d="M168.342 67.8317C167.84 67.9924 167.396 68.1201 167.011 68.2146C166.636 68.3187 166.209 68.3707 165.727 68.3707C164.893 68.3707 164.225 68.2005 163.722 67.8601C163.23 67.5102 162.915 67.0043 162.776 66.3424H162.679C161.984 67.0232 161.236 67.5433 160.434 67.9026C159.642 68.2619 158.685 68.4416 157.562 68.4416C156.375 68.4416 155.396 68.1201 154.626 67.4771C153.867 66.8341 153.487 65.9926 153.487 64.9524C153.487 64.4134 153.573 63.9312 153.744 63.5057C153.915 63.0802 154.172 62.6972 154.514 62.3568C154.781 62.0732 155.134 61.8226 155.573 61.6051C156.011 61.3782 156.423 61.1985 156.808 61.0661C157.289 60.9054 158.262 60.6075 159.728 60.1726C161.204 59.7376 162.198 59.3972 162.711 59.1513V57.7472C162.711 57.6242 162.679 57.3878 162.615 57.038C162.562 56.6881 162.439 56.3572 162.246 56.0451C162.032 55.6953 161.728 55.3927 161.332 55.1374C160.947 54.8726 160.396 54.7402 159.68 54.7402C159.188 54.7402 158.728 54.8159 158.3 54.9672C157.883 55.109 157.589 55.2603 157.418 55.421C157.418 55.6102 157.466 55.8891 157.562 56.2579C157.669 56.6267 157.722 56.9671 157.722 57.2791C157.722 57.61 157.551 57.9126 157.209 58.1868C156.878 58.4611 156.412 58.5982 155.813 58.5982C155.279 58.5982 154.883 58.4327 154.626 58.1017C154.38 57.7613 154.257 57.3831 154.257 56.9671C154.257 56.5321 154.428 56.116 154.771 55.7189C155.124 55.3218 155.578 54.9672 156.134 54.6551C156.616 54.3904 157.198 54.1682 157.883 53.9885C158.567 53.7994 159.236 53.7048 159.888 53.7048C160.786 53.7048 161.567 53.7616 162.23 53.875C162.904 53.9791 163.514 54.2107 164.059 54.57C164.604 54.9199 165.016 55.3974 165.294 56.0026C165.583 56.5983 165.727 57.3689 165.727 58.3145C165.727 59.6667 165.711 60.8675 165.679 61.9171C165.647 62.9573 165.631 64.0967 165.631 65.3354C165.631 65.7042 165.701 65.9973 165.84 66.2148C165.989 66.4322 166.214 66.6166 166.513 66.7679C166.674 66.853 166.925 66.9003 167.267 66.9098C167.62 66.9192 167.979 66.9239 168.342 66.9239V67.8317ZM162.744 60.3428C161.835 60.5791 161.038 60.8108 160.353 61.0378C159.669 61.2647 159.033 61.5484 158.444 61.8888C157.91 62.2103 157.487 62.5932 157.177 63.0376C156.867 63.4726 156.712 63.9927 156.712 64.5978C156.712 65.3827 156.942 65.9595 157.402 66.3282C157.872 66.697 158.466 66.8814 159.182 66.8814C159.942 66.8814 160.61 66.7206 161.187 66.3991C161.765 66.0682 162.252 65.6805 162.647 65.2361L162.744 60.3428Z" fill="#1A1108" stroke="#1A1108" stroke-width="0.19782"/>
<path d="M152.132 52.9247C152.132 53.9743 151.896 54.9057 151.426 55.7189C150.966 56.5226 150.324 57.1892 149.501 57.7188C148.688 58.2483 147.795 58.636 146.822 58.8818C145.848 59.1277 144.816 59.2506 143.726 59.2506H141.175V65.3495C141.175 65.6805 141.234 65.9736 141.351 66.2289C141.48 66.4748 141.736 66.6639 142.121 66.7963C142.314 66.8624 142.651 66.9239 143.132 66.9806C143.624 67.0374 144.073 67.0705 144.48 67.0799V68.087H134.71V67.0799C134.967 67.061 135.336 67.0279 135.817 66.9806C136.309 66.9334 136.651 66.8719 136.844 66.7963C137.164 66.6733 137.394 66.4937 137.533 66.2573C137.683 66.0209 137.758 65.7183 137.758 65.3495V50.8255C137.758 50.4946 137.704 50.1967 137.598 49.932C137.491 49.6672 137.239 49.4686 136.844 49.3363C136.437 49.2133 136.031 49.1282 135.624 49.081C135.229 49.0242 134.886 48.9864 134.598 48.9675V47.9604H144.993C147.11 47.9604 148.827 48.4143 150.142 49.3221C151.469 50.2204 152.132 51.4212 152.132 52.9247ZM147.255 56.3571C147.618 55.9033 147.859 55.4352 147.977 54.953C148.094 54.4613 148.153 54.0216 148.153 53.6339C148.153 53.0949 148.078 52.5465 147.929 51.9886C147.79 51.4307 147.544 50.9437 147.191 50.5277C146.816 50.0833 146.324 49.7381 145.715 49.4923C145.105 49.2464 144.346 49.1235 143.437 49.1235H141.175V58.0166H142.811C143.966 58.0166 144.902 57.8606 145.619 57.5486C146.346 57.2271 146.891 56.8299 147.255 56.3571Z" fill="#1A1108" stroke="#1A1108" stroke-width="0.19782"/>
<path d="M48.243 66.7391C44.9377 66.7391 42.6773 64.895 41.6113 62.0569C41.0546 60.5781 40.7789 59.008 40.8017 57.4274C40.8017 52.6662 42.9356 49.3591 47.6511 49.3591C50.8194 49.3591 52.7742 50.7413 53.8876 54.0413H55.2435L55.0591 49.4908C53.1623 48.2667 50.7913 47.6468 47.9075 47.6468C43.8436 47.6468 40.3872 49.4645 38.4641 52.7434C37.47 54.4752 36.966 56.4439 37.0029 58.4408C37.0029 62.0832 38.7223 65.3096 41.9486 67.1009C43.7153 68.044 45.6964 68.513 47.6985 68.4568C50.8458 68.4568 53.3432 67.8579 55.5561 66.8111L56.1286 61.7935H54.7464C53.9175 64.0854 52.9287 65.4623 51.2883 66.1929C50.4857 66.5547 49.4706 66.7391 48.2465 66.7391H48.243ZM62.5004 49.3591L62.632 47.1199H61.6977L57.5354 48.3703V49.0483L59.3795 49.9036V65.5642C59.3795 66.6302 58.8333 66.8673 57.4037 67.0464V68.1915H64.4832V67.0464C63.0483 66.8691 62.5074 66.632 62.5074 65.5642V49.3644L62.5004 49.3574V49.3591ZM90.6551 68.4585H91.2012L95.9889 67.5505V66.3791L95.318 66.3264C94.1992 66.221 93.9094 65.991 93.9094 65.0759V56.7249L94.0411 54.0448H93.2842L88.76 54.6964V55.8415L89.2009 55.9205C90.425 56.0979 90.7885 56.4404 90.7885 57.2975V64.7388C89.6171 65.6467 88.4966 66.221 87.1671 66.221C85.6918 66.221 84.7768 65.4711 84.7768 63.7183V56.7302L84.9086 54.0501H84.1322L79.6012 54.7017V55.8467L80.0683 55.9258C81.2924 56.1032 81.6559 56.4456 81.6559 57.3027V64.1715C81.6559 67.0816 83.3016 68.4655 85.9237 68.4655C87.9258 68.4655 89.5662 67.3994 90.7973 65.9172L90.6656 68.4655L90.6585 68.4585H90.6551ZM77.4971 59.1925C77.4971 55.4709 75.5213 54.0431 71.9525 54.0431C68.8053 54.0431 66.5187 55.3463 66.5187 57.5064C66.5187 58.1509 66.7488 58.6463 67.2159 58.9887L69.6132 58.6726C69.5079 57.949 69.4552 57.5064 69.4552 57.322C69.4552 56.0979 70.1068 55.4779 71.431 55.4779C73.3874 55.4779 74.3745 56.8548 74.3745 59.0677V59.7914L69.4359 61.2736C67.7902 61.7215 66.8541 62.1096 66.2289 63.0193C65.897 63.5761 65.7371 64.2171 65.7688 64.8634C65.7688 66.971 67.2177 68.4585 69.694 68.4585C71.4854 68.4585 73.0731 67.6489 74.4553 66.1139C74.9487 67.6489 75.7057 68.4585 77.0563 68.4585C78.1487 68.4585 79.1375 68.0177 80.0191 67.1553L79.7557 66.2473C79.3746 66.3528 79.0057 66.4054 78.6158 66.4054C77.8589 66.4054 77.4971 65.8066 77.4971 64.6333V59.1942V59.1925ZM71.1745 66.351C69.824 66.351 68.988 65.5677 68.988 64.1908C68.988 63.2565 69.4289 62.7085 70.3702 62.3923L74.3745 61.1208V64.967C73.0976 65.9348 72.346 66.3492 71.1745 66.3492V66.351ZM112.861 67.5488V66.3773L112.183 66.3247C111.065 66.2192 110.78 65.9892 110.78 65.0742V49.3609L110.911 47.1216H109.971L105.809 48.3721V49.05L107.652 49.9053V55.0547C106.615 54.3434 105.372 53.9868 104.115 54.0413C99.979 54.0413 96.7528 57.1886 96.7528 61.8988C96.7528 65.7784 99.0711 68.4585 102.891 68.4585C104.867 68.4585 106.586 67.4978 107.652 66.0086L107.521 68.4585H108.074L112.861 67.5505V67.5488ZM104.194 55.6026C106.17 55.6026 107.652 56.7477 107.652 58.8553V64.7827C106.742 65.6889 105.504 66.1877 104.22 66.1648C101.389 66.1648 99.9527 63.9256 99.9527 60.9365C99.9527 57.5785 101.593 55.6026 104.194 55.6026ZM122.984 58.5673C122.615 56.8285 121.549 55.8415 120.067 55.8415C117.854 55.8415 116.32 57.5082 116.32 59.8985C116.32 63.4356 118.19 65.7276 121.212 65.7276C123.229 65.7064 125.083 64.6158 126.079 62.863L126.96 63.1001C126.566 66.1683 123.787 68.4602 120.375 68.4602C116.37 68.4602 113.612 65.4974 113.612 61.2824C113.612 57.0674 116.608 54.0448 120.611 54.0448C123.601 54.0448 125.708 55.8433 126.388 58.9641L115.956 62.164V60.7555L122.982 58.576V58.5689L122.984 58.5673Z" fill="#1A1108"/>
</g>
<defs>
<clipPath id="clip0_10899_11128">
<rect width="363" height="27.6948" fill="white" transform="translate(1 44.1526)"/>
</clipPath>
</defs>
</svg>
